<svg width="169" height="44" viewBox="0 0 169 44" fill="none" xmlns="http://www.w3.org/2000/svg">
<path d="M16.46 23.9H9.86V44H3.56C2.2 44 1.3 43.78 0.86 43.34C0.46 42.9 0.26 41.98 0.26 40.58V0.619997H7.7C8.34 0.619997 8.86 0.839998 9.26 1.28C9.66 1.72 9.86 2.3 9.86 3.02V18.2H16.46V23.9ZM18.86 0.619997H25.16C26.52 0.619997 27.4 0.839998 27.8 1.28C28.24 1.72 28.46 2.64 28.46 4.04V44H21.02C20.38 44 19.86 43.78 19.46 43.34C19.06 42.9 18.86 42.32 18.86 41.6V0.619997ZM53.1969 6.32H47.6169C46.9769 6.32 46.6569 6.48 46.6569 6.8V44H40.3569C38.9969 44 38.0969 43.78 37.6569 43.34C37.2569 42.9 37.0569 41.98 37.0569 40.58V4.04C37.0569 2.64 37.2569 1.72 37.6569 1.28C38.0969 0.839998 38.9969 0.619997 40.3569 0.619997H53.1969V6.32ZM55.5969 0.619997H61.8969C63.2569 0.619997 64.1369 0.839998 64.5369 1.28C64.9769 1.72 65.1969 2.64 65.1969 4.04V40.52C65.1969 41.92 64.9769 42.86 64.5369 43.34C64.0969 43.78 63.2169 44 61.8969 44H55.5969V23.9H49.0569V18.2H55.5969V0.619997ZM92.5766 30.92H100.977C101.417 30.92 101.637 31.2 101.637 31.76V42.32C101.637 43.44 101.077 44 99.9566 44H85.4366V38.3H91.0166C91.6566 38.3 91.9766 38.24 91.9766 38.12C92.0166 37.96 92.0366 37.78 92.0366 37.58V31.58C92.0366 31.26 92.0766 31.08 92.1566 31.04C92.2366 30.96 92.3766 30.92 92.5766 30.92ZM83.3366 44H77.0366C75.6766 44 74.7766 43.78 74.3366 43.34C73.9366 42.9 73.7366 41.98 73.7366 40.58V4.04C73.7366 2.64 73.9366 1.72 74.3366 1.28C74.7766 0.839998 75.6766 0.619997 77.0366 0.619997H83.3366V44ZM116.852 44H110.552C109.192 44 108.292 43.78 107.852 43.34C107.452 42.9 107.252 41.98 107.252 40.58V4.04C107.252 2.64 107.452 1.72 107.852 1.28C108.292 0.839998 109.192 0.619997 110.552 0.619997H116.852V44ZM135.392 35.6V40.7C135.392 42.06 135.172 42.96 134.732 43.4C134.292 43.8 133.372 44 131.972 44H119.252V35.6H135.392ZM131.792 17.9V21.5C131.792 22.94 131.652 23.86 131.372 24.26C131.092 24.62 130.292 24.8 128.972 24.8H119.252V17.9H131.792ZM134.792 0.619997V5.72C134.792 7.08 134.572 7.98 134.132 8.42C133.692 8.82 132.772 9.02 131.372 9.02H119.252V0.619997H134.792ZM149.978 0.619997V17.72C149.978 18.36 150.078 18.82 150.278 19.1C150.478 19.34 150.938 19.46 151.658 19.46H153.818V25.16H144.458C142.938 25.16 141.878 24.82 141.278 24.14C140.678 23.42 140.378 22.32 140.378 20.84V3.44C140.378 1.56 141.478 0.619997 143.678 0.619997H149.978ZM159.758 44H152.258C150.898 44 149.998 43.78 149.558 43.34C149.158 42.9 148.958 41.98 148.958 40.58V30.98C148.958 29.58 149.158 28.66 149.558 28.22C149.998 27.78 150.898 27.56 152.258 27.56H159.758V44ZM159.278 0.619997H165.578C166.778 0.619997 167.618 0.859998 168.098 1.34C168.618 1.82 168.878 2.72 168.878 4.04V20.96C168.878 23.76 167.718 25.16 165.398 25.16H156.218V19.46H157.658C158.378 19.46 158.818 19.32 158.978 19.04C159.178 18.76 159.278 18.32 159.278 17.72V0.619997Z" fill="#6D79CB"/>
</svg>
