<svg version="1.2" width="230.77mm" height="25.41mm" viewBox="2800 6771 23077 2541" preserveAspectRatio="xMidYMid" fill-rule="evenodd" stroke-width="28.222" stroke-linejoin="round" xmlns="http://www.w3.org/2000/svg" xmlns:ooo="http://xml.openoffice.org/svg/export" xmlns:xlink="http://www.w3.org/1999/xlink" xmlns:presentation="http://sun.com/xmlns/staroffice/presentation" xmlns:smil="http://www.w3.org/2001/SMIL20/" xmlns:anim="urn:oasis:names:tc:opendocument:xmlns:animation:1.0" xml:space="preserve">
 <defs class="ClipPathGroup">
  <clipPath id="presentation_clip_path" clipPathUnits="userSpaceOnUse">
   <rect x="2800" y="6771" width="23077" height="2541"/>
  </clipPath>
  <clipPath id="presentation_clip_path_shrink" clipPathUnits="userSpaceOnUse">
   <rect x="2823" y="6773" width="23031" height="2536"/>
  </clipPath>
 </defs>
 <defs class="TextShapeIndex">
  <g ooo:slide="id1" ooo:id-list="id3 id4 id5 id6 id7 id8 id9 id10 id11 id12 id13 id14 id15 id16 id17"/>
 </defs>
 <defs class="EmbeddedBulletChars">
  <g id="bullet-char-template-57356" transform="scale(0.00048828125,-0.00048828125)">
   <path d="M 580,1141 L 1163,571 580,0 -4,571 580,1141 Z"/>
  </g>
  <g id="bullet-char-template-57354" transform="scale(0.00048828125,-0.00048828125)">
   <path d="M 8,1128 L 1137,1128 1137,0 8,0 8,1128 Z"/>
  </g>
  <g id="bullet-char-template-10146" transform="scale(0.00048828125,-0.00048828125)">
   <path d="M 174,0 L 602,739 174,1481 1456,739 174,0 Z M 1358,739 L 309,1346 659,739 1358,739 Z"/>
  </g>
  <g id="bullet-char-template-10132" transform="scale(0.00048828125,-0.00048828125)">
   <path d="M 2015,739 L 1276,0 717,0 1260,543 174,543 174,936 1260,936 717,1481 1274,1481 2015,739 Z"/>
  </g>
  <g id="bullet-char-template-10007" transform="scale(0.00048828125,-0.00048828125)">
   <path d="M 0,-2 C -7,14 -16,27 -25,37 L 356,567 C 262,823 215,952 215,954 215,979 228,992 255,992 264,992 276,990 289,987 310,991 331,999 354,1012 L 381,999 492,748 772,1049 836,1024 860,1049 C 881,1039 901,1025 922,1006 886,937 835,863 770,784 769,783 710,716 594,584 L 774,223 C 774,196 753,168 711,139 L 727,119 C 717,90 699,76 672,76 641,76 570,178 457,381 L 164,-76 C 142,-110 111,-127 72,-127 30,-127 9,-110 8,-76 1,-67 -2,-52 -2,-32 -2,-23 -1,-13 0,-2 Z"/>
  </g>
  <g id="bullet-char-template-10004" transform="scale(0.00048828125,-0.00048828125)">
   <path d="M 285,-33 C 182,-33 111,30 74,156 52,228 41,333 41,471 41,549 55,616 82,672 116,743 169,778 240,778 293,778 328,747 346,684 L 369,508 C 377,444 397,411 428,410 L 1163,1116 C 1174,1127 1196,1133 1229,1133 1271,1133 1292,1118 1292,1087 L 1292,965 C 1292,929 1282,901 1262,881 L 442,47 C 390,-6 338,-33 285,-33 Z"/>
  </g>
  <g id="bullet-char-template-9679" transform="scale(0.00048828125,-0.00048828125)">
   <path d="M 813,0 C 632,0 489,54 383,161 276,268 223,411 223,592 223,773 276,916 383,1023 489,1130 632,1184 813,1184 992,1184 1136,1130 1245,1023 1353,916 1407,772 1407,592 1407,412 1353,268 1245,161 1136,54 992,0 813,0 Z"/>
  </g>
  <g id="bullet-char-template-8226" transform="scale(0.00048828125,-0.00048828125)">
   <path d="M 346,457 C 273,457 209,483 155,535 101,586 74,649 74,723 74,796 101,859 155,911 209,963 273,989 346,989 419,989 480,963 531,910 582,859 608,796 608,723 608,648 583,586 532,535 482,483 420,457 346,457 Z"/>
  </g>
  <g id="bullet-char-template-8211" transform="scale(0.00048828125,-0.00048828125)">
   <path d="M -4,459 L 1135,459 1135,606 -4,606 -4,459 Z"/>
  </g>
  <g id="bullet-char-template-61548" transform="scale(0.00048828125,-0.00048828125)">
   <path d="M 173,740 C 173,903 231,1043 346,1159 462,1274 601,1332 765,1332 928,1332 1067,1274 1183,1159 1299,1043 1357,903 1357,740 1357,577 1299,437 1183,322 1067,206 928,148 765,148 601,148 462,206 346,322 231,437 173,577 173,740 Z"/>
  </g>
 </defs>
 <defs class="TextEmbeddedBitmaps"/>
 <g class="SlideGroup">
  <g>
   <g id="container-id1">
    <g id="id1" class="Slide" clip-path="url(#presentation_clip_path)">
     <g class="Page">
      <g class="Group">
       <g class="com.sun.star.drawing.ClosedBezierShape">
        <g id="id3">
         <rect class="BoundingBox" stroke="none" fill="none" x="5437" y="7249" width="10901" height="2064"/>
         <path fill="rgb(227,0,22)" stroke="none" d="M 6429,7424 L 6080,9030 6669,9030 7017,7424 6429,7424 Z M 6429,7424 L 6429,7424 Z M 5437,9198 L 5858,7254 6909,7254 C 7174,7254 7376,7300 7515,7393 7583,7439 7610,7491 7598,7549 L 7304,8905 C 7287,8981 7196,9049 7031,9108 6866,9168 6688,9198 6499,9198 L 5437,9198 Z M 5437,9198 L 5437,9198 Z M 8601,7424 L 8445,8139 9047,8139 9202,7424 8601,7424 Z M 8601,7424 L 8601,7424 Z M 8968,9198 C 8872,9152 8831,9096 8846,9030 L 9002,8310 8408,8310 8217,9193 7597,9193 8017,7254 9105,7254 C 9371,7254 9571,7307 9706,7414 9766,7461 9791,7508 9780,7557 L 9678,8030 9325,8223 9595,8411 9399,9312 C 9234,9295 9091,9257 8968,9198 Z M 8968,9198 L 8968,9198 Z M 9854,8885 L 10145,7544 C 10168,7439 10315,7354 10586,7291 10707,7262 10829,7249 10952,7249 L 11285,7249 C 11557,7249 11757,7302 11886,7409 11946,7457 11970,7506 11960,7554 L 11667,8905 C 11642,9017 11501,9102 11242,9158 11118,9185 10991,9198 10861,9198 L 10500,9198 C 10314,9198 10156,9166 10024,9101 9894,9036 9837,8964 9854,8885 Z M 9854,8885 L 9854,8885 Z M 10778,7424 L 10431,9025 11027,9025 11374,7424 10778,7424 Z M 10778,7424 L 10778,7424 Z M 14058,7863 L 13451,7863 13546,7424 12957,7424 12610,9025 13198,9025 13354,8310 12999,8310 13036,8139 13998,8139 13832,8905 C 13815,8983 13725,9052 13564,9110 13401,9169 13223,9198 13027,9198 L 12673,9198 C 12474,9198 12313,9165 12187,9100 12066,9037 12015,8965 12033,8885 L 12323,7549 C 12346,7442 12489,7358 12751,7296 12873,7268 12993,7254 13112,7254 L 13462,7254 C 13727,7254 13925,7307 14053,7414 14111,7462 14135,7509 14125,7556 L 14058,7863 Z M 14058,7863 L 14058,7863 Z M 14782,9198 L 14162,9198 14520,7549 C 14543,7440 14690,7356 14961,7295 15080,7267 15201,7254 15322,7254 L 15658,7254 C 15928,7254 16130,7306 16263,7411 16322,7457 16345,7505 16334,7557 L 15978,9198 15370,9198 15502,8592 14913,8592 14782,9198 Z M 14782,9198 L 14782,9198 Z M 15154,7424 L 14938,8421 15533,8421 15749,7424 15154,7424 Z"/>
        </g>
       </g>
       <g class="com.sun.star.drawing.ClosedBezierShape">
        <g id="id4">
         <rect class="BoundingBox" stroke="none" fill="none" x="16333" y="7254" width="8805" height="1945"/>
         <path fill="rgb(56,140,186)" stroke="none" d="M 19350,9197 L 18742,9197 19127,7424 18520,7424 18136,9192 17535,9192 17919,7424 17324,7424 16940,9192 16333,9192 16687,7561 C 16703,7484 16790,7413 16949,7349 17107,7285 17282,7254 17474,7254 L 19030,7254 C 19216,7254 19378,7284 19517,7344 19660,7408 19724,7476 19708,7549 L 19350,9197 Z M 19350,9197 L 19350,9197 Z M 20338,9197 L 19718,9197 20076,7549 C 20099,7440 20246,7356 20517,7295 20636,7267 20758,7254 20879,7254 L 21216,7254 C 21486,7254 21687,7306 21821,7411 21879,7456 21902,7505 21891,7556 L 21535,9197 20928,9197 21059,8592 20470,8592 20338,9197 Z M 20338,9197 L 20338,9197 Z M 20710,7424 L 20494,8421 21090,8421 21306,7424 20710,7424 Z M 20710,7424 L 20710,7424 Z M 22803,7878 L 23056,8034 23392,7879 23528,7254 24135,7254 23991,7918 23350,8220 23858,8529 23714,9192 23107,9192 23240,8580 22983,8411 22651,8581 22518,9192 21911,9192 22054,8530 22676,8227 22185,7930 22331,7254 22939,7254 22803,7878 Z M 22803,7878 L 22803,7878 Z M 24528,7254 L 25136,7254 24714,9197 24106,9197 24528,7254 Z"/>
        </g>
       </g>
      </g>
      <g class="com.sun.star.drawing.PolyPolygonShape">
       <g id="id5">
        <rect class="BoundingBox" stroke="none" fill="none" x="25215" y="6771" width="663" height="350"/>
        <path fill="rgb(227,0,22)" stroke="none" d="M 25306,6771 L 25877,6771 25786,7120 25215,7120 25306,6771 Z"/>
       </g>
      </g>
      <g class="com.sun.star.drawing.ClosedBezierShape">
       <g id="id6">
        <rect class="BoundingBox" stroke="none" fill="none" x="2800" y="6800" width="2601" height="2466"/>
        <path fill="rgb(227,0,22)" stroke="none" d="M 4099,6800 C 4818,6800 5400,7389 5400,8118 5400,8609 5134,9038 4741,9265 5017,9062 5197,8733 5197,8362 5197,7747 4706,7249 4099,7249 3493,7249 3002,7747 3002,8362 3002,8733 3182,9062 3458,9265 3065,9038 2800,8609 2800,8118 2800,7389 3381,6800 4099,6800 Z"/>
       </g>
      </g>
      <g class="com.sun.star.drawing.ClosedBezierShape">
       <g id="id7">
        <rect class="BoundingBox" stroke="none" fill="none" x="3800" y="7619" width="881" height="875"/>
        <path fill="rgb(227,0,22)" stroke="none" d="M 3801,8079 L 4182,7702 C 4298,7590 4483,7591 4596,7705 L 4596,7705 C 4709,7820 4708,8006 4593,8119 L 4214,8493 3801,8079 Z"/>
       </g>
      </g>
      <g class="com.sun.star.drawing.ClosedBezierShape">
       <g id="id8">
        <rect class="BoundingBox" stroke="none" fill="none" x="3886" y="7657" width="756" height="755"/>
        <path fill="rgb(255,255,255)" stroke="none" d="M 3887,8054 L 4214,7729 C 4312,7632 4472,7634 4568,7731 L 4568,7731 C 4665,7830 4664,7991 4566,8088 L 4241,8410 3887,8054 Z"/>
       </g>
      </g>
      <g class="com.sun.star.drawing.ClosedBezierShape">
       <g id="id9">
        <rect class="BoundingBox" stroke="none" fill="none" x="3352" y="8061" width="881" height="876"/>
        <path fill="rgb(227,0,22)" stroke="none" d="M 4231,8475 L 3849,8852 C 3734,8964 3548,8963 3436,8848 L 3436,8848 C 3324,8734 3325,8548 3438,8435 L 3818,8061 4231,8475 Z"/>
       </g>
      </g>
      <g class="com.sun.star.drawing.ClosedBezierShape">
       <g id="id10">
        <rect class="BoundingBox" stroke="none" fill="none" x="4193" y="8512" width="688" height="385"/>
        <path fill="rgb(255,204,0)" stroke="none" d="M 4193,8633 C 4193,8633 4215,8764 4218,8775 4222,8793 4231,8801 4231,8801 4231,8801 4323,8931 4581,8885 4804,8846 4871,8710 4871,8710 4871,8710 4883,8692 4879,8660 4876,8637 4854,8512 4854,8512 4854,8512 4813,8674 4552,8721 4299,8767 4193,8633 4193,8633 Z"/>
       </g>
      </g>
      <g class="com.sun.star.drawing.ClosedBezierShape">
       <g id="id11">
        <rect class="BoundingBox" stroke="none" fill="none" x="3441" y="7797" width="450" height="252"/>
        <path fill="rgb(255,204,0)" stroke="none" d="M 3441,7877 C 3441,7877 3456,7962 3457,7969 3460,7981 3466,7987 3466,7987 3466,7987 3526,8071 3694,8041 3840,8015 3884,7927 3884,7927 3884,7927 3891,7915 3889,7894 3887,7879 3872,7798 3872,7798 3872,7798 3846,7903 3676,7934 3511,7964 3441,7877 3441,7877 Z"/>
       </g>
      </g>
      <g class="com.sun.star.drawing.ClosedBezierShape">
       <g id="id12">
        <rect class="BoundingBox" stroke="none" fill="none" x="4187" y="8371" width="673" height="410"/>
        <path fill="rgb(255,255,255)" stroke="none" d="M 4190,8634 C 4171,8527 4304,8413 4488,8380 4672,8348 4837,8408 4856,8517 4875,8624 4741,8738 4558,8771 4374,8803 4209,8742 4190,8634 Z"/>
       </g>
      </g>
      <g class="com.sun.star.drawing.ClosedBezierShape">
       <g id="id13">
        <rect class="BoundingBox" stroke="none" fill="none" x="3438" y="7705" width="438" height="268"/>
        <path fill="rgb(255,255,255)" stroke="none" d="M 3439,7878 C 3427,7807 3513,7732 3634,7711 3754,7691 3861,7730 3874,7800 3886,7871 3799,7945 3679,7966 3559,7987 3451,7947 3439,7878 Z"/>
       </g>
      </g>
      <g class="com.sun.star.drawing.ClosedBezierShape">
       <g id="id14">
        <rect class="BoundingBox" stroke="none" fill="none" x="4192" y="8373" width="660" height="386"/>
        <path fill="rgb(255,204,0)" stroke="none" d="M 4194,8623 C 4177,8522 4308,8414 4489,8382 4669,8351 4830,8407 4849,8507 4866,8609 4734,8716 4553,8748 4373,8780 4212,8724 4194,8623 Z"/>
       </g>
      </g>
      <g class="com.sun.star.drawing.ClosedBezierShape">
       <g id="id15">
        <rect class="BoundingBox" stroke="none" fill="none" x="3440" y="7707" width="432" height="253"/>
        <path fill="rgb(255,204,0)" stroke="none" d="M 3442,7870 C 3431,7805 3516,7734 3634,7713 3752,7693 3857,7729 3869,7796 3880,7861 3795,7932 3677,7953 3559,7973 3454,7937 3442,7870 Z"/>
       </g>
      </g>
      <g class="com.sun.star.drawing.PolyPolygonShape">
       <g id="id16">
        <rect class="BoundingBox" stroke="none" fill="none" x="4159" y="8427" width="707" height="253"/>
        <path fill="none" stroke="rgb(255,255,255)" stroke-width="71" stroke-linejoin="round" d="M 4195,8643 L 4829,8463"/>
       </g>
      </g>
      <g class="com.sun.star.drawing.PolyPolygonShape">
       <g id="id17">
        <rect class="BoundingBox" stroke="none" fill="none" x="3407" y="7729" width="486" height="191"/>
        <path fill="none" stroke="rgb(255,255,255)" stroke-width="71" stroke-linejoin="round" d="M 3443,7883 L 3856,7765"/>
       </g>
      </g>
     </g>
    </g>
   </g>
  </g>
 </g>
</svg>